<svg width="20" height="20" viewBox="0 0 20 20" fill="none" xmlns="http://www.w3.org/2000/svg">
<path d="M16.025 12.7166L13.9083 12.475C13.4 12.4166 12.9 12.5916 12.5417 12.95L11.0083 14.4833C8.65 13.2833 6.71667 11.3583 5.51667 8.99163L7.05833 7.44997C7.41667 7.09163 7.59167 6.59163 7.53333 6.0833L7.29167 3.9833C7.19167 3.14163 6.48333 2.5083 5.63333 2.5083H4.19167C3.25 2.5083 2.46667 3.29163 2.525 4.2333C2.96667 11.35 8.65833 17.0333 15.7667 17.475C16.7083 17.5333 17.4917 16.75 17.4917 15.8083V14.3666C17.5 13.525 16.8667 12.8166 16.025 12.7166Z" fill="black" fill-opacity="0.54"/>
</svg>
