<svg width="20" height="20" viewBox="0 0 20 20" fill="none" xmlns="http://www.w3.org/2000/svg">
<path d="M10 1.66663C6.775 1.66663 4.16667 4.27496 4.16667 7.49996C4.16667 10.975 7.85 15.7666 9.36667 17.5916C9.7 17.9916 10.3083 17.9916 10.6417 17.5916C12.15 15.7666 15.8333 10.975 15.8333 7.49996C15.8333 4.27496 13.225 1.66663 10 1.66663ZM10 9.58329C8.85 9.58329 7.91667 8.64996 7.91667 7.49996C7.91667 6.34996 8.85 5.41663 10 5.41663C11.15 5.41663 12.0833 6.34996 12.0833 7.49996C12.0833 8.64996 11.15 9.58329 10 9.58329Z" fill="black" fill-opacity="0.54"/>
</svg>
