<svg width="20" height="20" viewBox="0 0 20 20" fill="none" xmlns="http://www.w3.org/2000/svg">
<path d="M16.6667 3.33337H3.33333C2.41667 3.33337 1.675 4.08337 1.675 5.00004L1.66667 15C1.66667 15.9167 2.41667 16.6667 3.33333 16.6667H16.6667C17.5833 16.6667 18.3333 15.9167 18.3333 15V5.00004C18.3333 4.08337 17.5833 3.33337 16.6667 3.33337ZM15.8333 15H4.16667C3.70833 15 3.33333 14.625 3.33333 14.1667V6.66671L9.11667 10.2834C9.65833 10.625 10.3417 10.625 10.8833 10.2834L16.6667 6.66671V14.1667C16.6667 14.625 16.2917 15 15.8333 15ZM10 9.16671L3.33333 5.00004H16.6667L10 9.16671Z" fill="black" fill-opacity="0.54"/>
</svg>
